<svg width="46" height="40" viewBox="0 0 46 40" fill="none" xmlns="http://www.w3.org/2000/svg">
<path d="M5.23057 4.96997L20.4472 4.97033V7.47211H5.23057C4.1559 7.47211 2.41883 8.89815 2.58207 10.1756L5.85633 35.3517C6.03318 36.7089 7.21668 37.4978 8.57703 37.4978H37.43C38.7904 37.4978 39.9739 36.7089 40.1507 35.3517L43.4173 10.1756C43.5805 8.89815 41.8512 7.47211 40.7765 7.47211H28.7423L28.1043 4.96997H40.7765C43.3203 4.96997 46.3367 7.67395 45.9694 10.4683L42.5993 35.6444C42.2593 38.2126 40.0283 39.9999 37.43 39.9999H8.57703C5.97876 39.9999 3.74779 38.2126 3.40771 35.6444L0.0304843 10.4683C-0.33681 7.67395 2.68672 4.96997 5.23057 4.96997Z" fill="#0E6CDD"/>
<path d="M19.7651 7.4722V3.00423C19.7651 0.382832 22.1579 -0.93452 24.1168 0.755417L31.7075 7.34218C33.2583 8.68615 33.1631 10.1632 31.7484 11.3874L24.076 18.054C22.1579 19.7173 19.7775 18.1072 19.7639 15.6455V13.7275H11.818C10.0904 13.7142 9.95557 14.5943 10.1732 16.1245L12.6763 33.9288L10.1596 33.7292L7.7382 16.4439C7.31649 13.4366 8.5124 11.1855 11.818 11.2254H22.2523V16.1911L30.3608 9.36478L22.2531 2.56511V7.4722H19.7651Z" fill="#0E6CDD"/>
</svg>
